<?xml version="1.0" encoding="UTF-8"?>
<svg xmlns="http://www.w3.org/2000/svg" xmlns:xlink="http://www.w3.org/1999/xlink" viewBox="0 0 500 500" width="500px" height="500px">
<g id="surface29752439">
<path style=" stroke:none;fill-rule:nonzero;fill:rgb(92.54902%,94.117647%,94.509804%);fill-opacity:1;" d="M 471.601562 212.210938 L 412.5 202.550781 C 409.039062 190.691406 404.308594 179.289062 398.390625 168.5 L 432.890625 119.328125 C 435.679688 115.359375 435.199219 109.949219 431.769531 106.511719 L 392.878906 67.640625 C 389.410156 64.179688 383.949219 63.730469 379.96875 66.601562 L 331.539062 101.410156 C 320.648438 95.390625 309.148438 90.609375 297.21875 87.140625 L 286.910156 28.28125 C 286.070312 23.5 281.921875 20 277.058594 20 L 222.058594 20 C 217.160156 20 212.980469 23.550781 212.191406 28.390625 L 202.628906 86.929688 C 190.628906 90.378906 179.109375 95.109375 168.261719 101.050781 L 119.960938 66.550781 C 115.96875 63.699219 110.539062 64.160156 107.070312 67.609375 L 68.199219 106.480469 C 64.769531 109.910156 64.289062 115.308594 67.078125 119.28125 L 101.070312 167.910156 C 95.019531 178.859375 90.199219 190.449219 86.691406 202.511719 L 28.378906 212.21875 C 23.558594 213.019531 20.019531 217.199219 20.019531 222.078125 L 20.019531 277.078125 C 20.019531 281.929688 23.5 286.078125 28.269531 286.929688 L 86.578125 297.269531 C 90.070312 309.300781 94.890625 320.890625 100.960938 331.871094 L 66.550781 380 C 63.710938 383.96875 64.160156 389.421875 67.609375 392.890625 L 106.488281 431.800781 C 109.921875 435.230469 115.328125 435.710938 119.300781 432.921875 L 168 398.808594 C 178.929688 404.820312 190.480469 409.589844 202.449219 413.050781 L 212.210938 471.660156 C 213 476.46875 217.171875 480 222.058594 480 L 277.058594 480 C 281.910156 480 286.058594 476.519531 286.898438 471.75 L 297.351562 412.851562 C 309.339844 409.320312 320.828125 404.519531 331.648438 398.5 L 380.699219 432.910156 C 384.679688 435.71875 390.078125 435.230469 393.519531 431.800781 L 432.398438 392.890625 C 435.859375 389.421875 436.308594 383.949219 433.441406 379.96875 L 398.460938 331.398438 C 404.390625 320.601562 409.101562 309.179688 412.53125 297.320312 L 471.710938 286.929688 C 476.5 286.089844 479.980469 281.929688 479.980469 277.078125 L 479.980469 222.078125 C 479.988281 217.179688 476.441406 213 471.601562 212.210938 Z M 250 320 C 211.339844 320 180 288.660156 180 250 C 180 211.339844 211.339844 180 250 180 C 288.660156 180 320 211.339844 320 250 C 320 288.660156 288.660156 320 250 320 Z M 250 320 "/>
</g>
</svg>
